<?xml version="1.0" encoding="UTF-8"?>
<!-- Created with Inkscape (http://www.inkscape.org/) -->
<svg width="64" height="64" version="1.1" viewBox="0 0 17 17" xml:space="preserve" xmlns="http://www.w3.org/2000/svg" xmlns:xlink="http://www.w3.org/1999/xlink"><style>@media(prefers-color-scheme:dark){svg{filter:invert();}}</style><defs><linearGradient id="linearGradient62"><stop stop-color="#1a1a1a" offset="0"/><stop stop-color="#1a1a1a" stop-opacity=".28061" offset="1"/></linearGradient><linearGradient id="linearGradient28"><stop stop-opacity="0" offset="0"/><stop offset=".64096"/></linearGradient><linearGradient id="linearGradient41" x1="9.5606" x2="16.692" y1="12.487" y2="12.487" gradientUnits="userSpaceOnUse" xlink:href="#linearGradient28"/><linearGradient id="linearGradient46" x1="-.18262" x2="6.9326" y1="4.4784" y2="4.4784" gradientUnits="userSpaceOnUse" xlink:href="#linearGradient62"/><filter id="filter64" x="-.11413" y="-.080894" width="1.2285" height="1.1616" color-interpolation-filters="sRGB"><feGaussianBlur stdDeviation="0.24482405"/></filter><filter id="filter65" x="-.10615" y="-.083219" width="1.2108" height="1.1652" color-interpolation-filters="sRGB"><feGaussianBlur stdDeviation="0.24377189"/></filter><filter id="filter68" x="-.062" y="-.062" width="1.124" height="1.124" color-interpolation-filters="sRGB"><feGaussianBlur stdDeviation="0.1"/></filter><linearGradient id="linearGradient68" x1="-.18262" x2="6.9326" y1="4.4784" y2="4.4784" gradientTransform="matrix(.91572 .041632 -.041682 .91682 .31373 -.13794)" gradientUnits="userSpaceOnUse" xlink:href="#linearGradient62"/><linearGradient id="linearGradient69" x1="9.5606" x2="16.692" y1="12.487" y2="12.487" gradientTransform="matrix(.91667 0 0 .91777 .12387 -.0016681)" gradientUnits="userSpaceOnUse" xlink:href="#linearGradient28"/><filter id="filter75" x="-.8" y="-.8" width="2.6" height="2.6" color-interpolation-filters="sRGB"><feGaussianBlur stdDeviation="0.25"/></filter><radialGradient id="radialGradient87" cx="12" cy="12" r="2.6" gradientUnits="userSpaceOnUse"><stop stop-color="#fff" offset="0"/><stop stop-opacity="0" offset="1"/></radialGradient></defs><g transform="matrix(1.0215 0 0 1.0215 .61201 .55556)"><g fill="none" stroke-linecap="round" stroke-linejoin="round" stroke-width="2"><circle transform="matrix(1.5787 0 0 1.5806 -11.028 -11.202)" cx="12" cy="12" r="1" filter="url(#filter75)" opacity=".25" stroke="url(#radialGradient87)" style="mix-blend-mode:normal"/><g transform="matrix(.47287 0 0 .47344 2.2416 2.0837)" stroke="#1a1a1a"><circle cx="12" cy="12" r="10"/><circle cx="12" cy="12" r="1"/></g></g><g fill-opacity=".2"><path d="m4.0194 0.069754q0.81973 0.12384 1.3905 0.45155t1.0256 0.89088l-0.85707 0.73294q-0.36292-0.4113-0.76589-0.63316-0.39174-0.22017-0.8746-0.29312-0.539-0.08143-0.91318 0.11502-0.36126 0.1869-0.42739 0.62537-0.044087 0.29231 0.050608 0.5021 0.10592 0.21149 0.41737 0.43102 0.31144 0.21954 0.94344 0.522 1.0911 0.53281 1.5824 1.159 0.50422 0.61663 0.34992 1.6397-0.10513 0.69705-0.54586 1.1824-0.4295 0.48706-1.1378 0.69053-0.70831 0.20346-1.6179 0.06605-0.88711-0.13402-1.5522-0.52197-0.65212-0.39749-1.0828-0.96852l0.89246-0.73909q0.39152 0.45011 0.84385 0.72543 0.45403 0.26408 1.0379 0.35229 0.64006 0.096699 1.0789-0.14748 0.4388-0.24418 0.52189-0.79508 0.05087-0.33728-0.051663-0.57126-0.10084-0.24521-0.40105-0.46305-0.29852-0.22908-0.8873-0.51352-1.1776-0.56887-1.6464-1.1916-0.46884-0.62278-0.33658-1.4997 0.096653-0.64084 0.50644-1.0734 0.40979-0.43255 1.0456-0.61246 0.64707-0.17822 1.4107-0.062859z" stroke="url(#linearGradient68)" stroke-width=".24268" aria-label="S"/><path d="m11.589 7.6096q1.8222 0.15077 2.8404 1.0679 1.0296 0.91803 0.84623 3.139-0.17958 2.1756-1.3287 2.9819-1.1482 0.79489-2.8006 0.65817l-2.1278-0.17605 0.64632-7.83zm-0.52268 1.0862-0.46112 5.5864 0.73566 0.06087q0.99598 0.08241 1.6124-0.48267 0.61734-0.57641 0.74922-2.1741 0.09167-1.1105-0.15303-1.7354-0.23244-0.63531-0.69002-0.88994-0.44626-0.25369-1.1027-0.30801z" stroke="url(#linearGradient69)" stroke-width=".24268" aria-label="D"/><path transform="matrix(.91667 0 0 .91777 .12387 -.0016681)" d="m12.507 8.2933q1.9878 0.16428 3.0986 1.1636 1.1232 1.0003 0.92316 3.4203-0.19591 2.3706-1.4495 3.2491-1.2525 0.86612-3.0552 0.71714l-2.3212-0.19183 0.70507-8.5316zm-0.5702 1.1836-0.50304 6.087 0.80254 0.06632q1.0865 0.08979 1.759-0.52592 0.67346-0.62806 0.81733-2.369 0.1-1.21-0.16694-1.8909-0.25357-0.69223-0.75275-0.96968-0.48683-0.27642-1.2029-0.33561z" filter="url(#filter65)" stroke="url(#linearGradient41)" stroke-width=".26458" style="mix-blend-mode:normal" aria-label="D"/><path transform="matrix(.91572 .041632 -.041682 .91682 .31373 -.13794)" d="m4.0486 0.042687q0.89947 0.094234 1.5377 0.42269 0.63825 0.32846 1.1619 0.91895l-0.89771 0.8402q-0.41588-0.42973-0.86602-0.65128-0.43782-0.22026-0.96764-0.27577-0.59143-0.061962-0.98947 0.17038-0.38443 0.22132-0.43477 0.70185-0.033563 0.32036 0.080028 0.54402 0.12591 0.22496 0.47619 0.4485 0.35028 0.22355 1.054 0.5215 1.2155 0.52596 1.7819 1.1832 0.58005 0.64623 0.46258 1.7675-0.080034 0.76393-0.53628 1.3141-0.44393 0.55141-1.2057 0.80793-0.76182 0.25652-1.7599 0.15196-0.9734-0.10198-1.7174-0.49134-0.73037-0.40039-1.228-1.0006l0.93597-0.84865q0.44897 0.47056 0.95556 0.74786 0.50788 0.26497 1.1486 0.3321 0.70232 0.07358 1.1684-0.21392 0.4661-0.2875 0.52936-0.89125 0.038726-0.36964-0.084605-0.61924-0.12204-0.26192-0.46-0.48418-0.33667-0.23458-0.9924-0.51504-1.3115-0.56093-1.8533-1.2156-0.54179-0.65468-0.4411-1.6158 0.07358-0.70232 0.49873-1.1934 0.42515-0.4911 1.1092-0.7184 0.69634-0.22601 1.5342-0.13823z" filter="url(#filter64)" stroke="url(#linearGradient46)" stroke-width=".26458" style="mix-blend-mode:normal" aria-label="S"/></g><g transform="matrix(.47287 0 0 .47344 1.8781 2.4929)" fill="none" filter="url(#filter68)" opacity=".5" stroke="#1a1a1a" stroke-linecap="round" stroke-linejoin="round" stroke-width="2" style="mix-blend-mode:normal"><circle cx="12" cy="12" r="10"/><circle cx="12" cy="12" r="1"/></g></g></svg>
